<?xml version="1.0" encoding="utf-8"?>
<!-- Generator: Adobe Illustrator 23.0.1, SVG Export Plug-In . SVG Version: 6.00 Build 0)  -->
<svg version="1.1" id="Layer_1" xmlns="http://www.w3.org/2000/svg" xmlns:xlink="http://www.w3.org/1999/xlink" x="0px" y="0px"
	 viewBox="0 0 1008.2 701.8" style="enable-background:new 0 0 1008.2 701.8;" xml:space="preserve">
<style type="text/css">
	.st0{opacity:0.2;}
	.st1{fill:none;}
	.st2{fill-rule:evenodd;clip-rule:evenodd;fill:#231F20;}
	.st3{opacity:0.1;}
	.st4{fill:#0C1649;}
	.st5{opacity:0.19;}
	.st6{fill:#4154AF;}
	.st7{fill:#1E3287;}
	.st8{fill:#5E6DBA;}
	.st9{fill:#616161;}
	.st10{fill:#7B87C6;}
	.st11{fill:#A0A9D6;}
	.st12{opacity:0.1;fill:#5E6DBA;}
	.st13{fill:#003347;}
	.st14{opacity:0.1;fill:#7B87C6;}
	.st15{fill:#FFFFFF;}
</style>
<g class="st0">
	<g>
		<g>
			<g>
				<rect x="487.7" y="470.9" class="st1" width="26.3" height="23.4"/>
			</g>
		</g>
		<g>
			<rect x="499.9" y="472.6" class="st2" width="2.6" height="4.3"/>
		</g>
		<g>
			<rect x="499.9" y="480.4" class="st2" width="2.6" height="4.3"/>
		</g>
		<g>
			<rect x="499.9" y="488.2" class="st2" width="2.6" height="4.3"/>
		</g>
	</g>
	<g>
		<g>
			<g>
				<rect x="487.7" y="447.5" class="st1" width="26.3" height="23.4"/>
			</g>
		</g>
		<g>
			<rect x="499.9" y="449.2" class="st2" width="2.6" height="4.3"/>
		</g>
		<g>
			<rect x="499.9" y="457" class="st2" width="2.6" height="4.3"/>
		</g>
		<g>
			<rect x="499.9" y="464.8" class="st2" width="2.6" height="4.3"/>
		</g>
	</g>
	<g>
		<g>
			<g>
				<rect x="487.7" y="424.1" class="st1" width="26.3" height="23.4"/>
			</g>
		</g>
		<g>
			<rect x="499.9" y="425.8" class="st2" width="2.6" height="4.3"/>
		</g>
		<g>
			<rect x="499.9" y="433.6" class="st2" width="2.6" height="4.3"/>
		</g>
		<g>
			<rect x="499.9" y="441.4" class="st2" width="2.6" height="4.3"/>
		</g>
	</g>
	<g>
		<g>
			<g>
				<rect x="487.7" y="400.7" class="st1" width="26.3" height="23.4"/>
			</g>
		</g>
		<g>
			<rect x="499.9" y="402.4" class="st2" width="2.6" height="4.3"/>
		</g>
		<g>
			<rect x="499.9" y="410.2" class="st2" width="2.6" height="4.3"/>
		</g>
		<g>
			<rect x="499.9" y="417.9" class="st2" width="2.6" height="4.3"/>
		</g>
	</g>
	<g>
		<g>
			<g>
				<rect x="487.7" y="377.3" class="st1" width="26.3" height="23.4"/>
			</g>
		</g>
		<g>
			<rect x="499.9" y="379" class="st2" width="2.6" height="4.3"/>
		</g>
		<g>
			<rect x="499.9" y="386.8" class="st2" width="2.6" height="4.3"/>
		</g>
		<g>
			<rect x="499.9" y="394.5" class="st2" width="2.6" height="4.3"/>
		</g>
	</g>
	<g>
		<g>
			<g>
				<rect x="487.7" y="353.9" class="st1" width="26.3" height="23.4"/>
			</g>
		</g>
		<g>
			<rect x="499.9" y="355.6" class="st2" width="2.6" height="4.3"/>
		</g>
		<g>
			<rect x="499.9" y="363.4" class="st2" width="2.6" height="4.3"/>
		</g>
		<g>
			<rect x="499.9" y="371.1" class="st2" width="2.6" height="4.3"/>
		</g>
	</g>
	<g>
		<g>
			<g>
				<rect x="487.7" y="330.4" class="st1" width="26.3" height="23.4"/>
			</g>
		</g>
		<g>
			<rect x="499.9" y="332.2" class="st2" width="2.6" height="4.3"/>
		</g>
		<g>
			<rect x="499.9" y="340" class="st2" width="2.6" height="4.3"/>
		</g>
		<g>
			<rect x="499.9" y="347.7" class="st2" width="2.6" height="4.3"/>
		</g>
	</g>
	<g>
		<g>
			<g>
				<rect x="487.7" y="307" class="st1" width="26.3" height="23.4"/>
			</g>
		</g>
		<g>
			<rect x="499.9" y="308.8" class="st2" width="2.6" height="4.3"/>
		</g>
		<g>
			<rect x="499.9" y="316.6" class="st2" width="2.6" height="4.3"/>
		</g>
		<g>
			<rect x="499.9" y="324.3" class="st2" width="2.6" height="4.3"/>
		</g>
	</g>
	<g>
		<g>
			<g>
				<rect x="487.7" y="283.6" class="st1" width="26.3" height="23.4"/>
			</g>
		</g>
		<g>
			<rect x="499.9" y="285.4" class="st2" width="2.6" height="4.3"/>
		</g>
		<g>
			<rect x="499.9" y="293.2" class="st2" width="2.6" height="4.3"/>
		</g>
		<g>
			<rect x="499.9" y="300.9" class="st2" width="2.6" height="4.3"/>
		</g>
	</g>
	<g>
		<g>
			<g>
				<rect x="487.7" y="260.2" class="st1" width="26.3" height="23.4"/>
			</g>
		</g>
		<g>
			<rect x="499.9" y="262" class="st2" width="2.6" height="4.3"/>
		</g>
		<g>
			<rect x="499.9" y="269.8" class="st2" width="2.6" height="4.3"/>
		</g>
		<g>
			<rect x="499.9" y="277.5" class="st2" width="2.6" height="4.3"/>
		</g>
	</g>
	<g>
		<g>
			<g>
				<rect x="487.7" y="236.8" class="st1" width="26.3" height="23.4"/>
			</g>
		</g>
		<g>
			<rect x="499.9" y="238.6" class="st2" width="2.6" height="4.3"/>
		</g>
		<g>
			<rect x="499.9" y="246.4" class="st2" width="2.6" height="4.3"/>
		</g>
		<g>
			<rect x="499.9" y="254.1" class="st2" width="2.6" height="4.3"/>
		</g>
	</g>
	<g>
		<g>
			<g>
				<rect x="487.7" y="213.4" class="st1" width="26.3" height="23.4"/>
			</g>
		</g>
		<g>
			<rect x="499.9" y="215.2" class="st2" width="2.6" height="4.3"/>
		</g>
		<g>
			<rect x="499.9" y="222.9" class="st2" width="2.6" height="4.3"/>
		</g>
		<g>
			<rect x="499.9" y="230.7" class="st2" width="2.6" height="4.3"/>
		</g>
	</g>
	<g>
		<g>
			<g>
				<rect x="487.7" y="190" class="st1" width="26.3" height="23.4"/>
			</g>
		</g>
		<g>
			<rect x="499.9" y="191.8" class="st2" width="2.6" height="4.3"/>
		</g>
		<g>
			<rect x="499.9" y="199.5" class="st2" width="2.6" height="4.3"/>
		</g>
		<g>
			<rect x="499.9" y="207.3" class="st2" width="2.6" height="4.3"/>
		</g>
	</g>
</g>
<g class="st0">
	<g>
		<g>
			<g>
				<rect x="613.7" y="91.3" class="st1" width="24.4" height="26.3"/>
			</g>
		</g>
		<g>
			<rect x="631.7" y="103.6" class="st2" width="4.5" height="2.6"/>
		</g>
		<g>
			<rect x="623.6" y="103.6" class="st2" width="4.5" height="2.6"/>
		</g>
		<g>
			<rect x="615.5" y="103.6" class="st2" width="4.5" height="2.6"/>
		</g>
	</g>
	<g>
		<g>
			<g>
				<rect x="638.1" y="91.3" class="st1" width="24.4" height="26.3"/>
			</g>
		</g>
		<g>
			<rect x="656.1" y="103.6" class="st2" width="4.5" height="2.6"/>
		</g>
		<g>
			<rect x="648" y="103.6" class="st2" width="4.5" height="2.6"/>
		</g>
		<g>
			<rect x="639.9" y="103.6" class="st2" width="4.5" height="2.6"/>
		</g>
	</g>
	<g>
		<g>
			<g>
				<rect x="662.4" y="91.3" class="st1" width="24.4" height="26.3"/>
			</g>
		</g>
		<g>
			<rect x="680.5" y="103.6" class="st2" width="4.5" height="2.6"/>
		</g>
		<g>
			<rect x="672.3" y="103.6" class="st2" width="4.5" height="2.6"/>
		</g>
		<g>
			<rect x="664.3" y="103.6" class="st2" width="4.5" height="2.6"/>
		</g>
	</g>
	<g>
		<g>
			<g>
				<rect x="686.8" y="91.3" class="st1" width="24.4" height="26.3"/>
			</g>
		</g>
		<g>
			<rect x="704.8" y="103.6" class="st2" width="4.5" height="2.6"/>
		</g>
		<g>
			<rect x="696.7" y="103.6" class="st2" width="4.5" height="2.6"/>
		</g>
		<g>
			<rect x="688.6" y="103.6" class="st2" width="4.5" height="2.6"/>
		</g>
	</g>
	<g>
		<g>
			<g>
				<rect x="711.1" y="91.3" class="st1" width="24.4" height="26.3"/>
			</g>
		</g>
		<g>
			<rect x="729.2" y="103.6" class="st2" width="4.5" height="2.6"/>
		</g>
		<g>
			<rect x="721.1" y="103.6" class="st2" width="4.5" height="2.6"/>
		</g>
		<g>
			<rect x="713" y="103.6" class="st2" width="4.5" height="2.6"/>
		</g>
	</g>
	<g>
		<g>
			<g>
				<rect x="735.5" y="91.3" class="st1" width="24.4" height="26.3"/>
			</g>
		</g>
		<g>
			<rect x="753.5" y="103.6" class="st2" width="4.5" height="2.6"/>
		</g>
		<g>
			<rect x="745.4" y="103.6" class="st2" width="4.5" height="2.6"/>
		</g>
		<g>
			<rect x="737.3" y="103.6" class="st2" width="4.5" height="2.6"/>
		</g>
	</g>
	<g>
		<g>
			<g>
				<rect x="759.8" y="91.3" class="st1" width="24.4" height="26.3"/>
			</g>
		</g>
		<g>
			<rect x="777.9" y="103.6" class="st2" width="4.5" height="2.6"/>
		</g>
		<g>
			<rect x="769.8" y="103.6" class="st2" width="4.5" height="2.6"/>
		</g>
		<g>
			<rect x="761.7" y="103.6" class="st2" width="4.5" height="2.6"/>
		</g>
	</g>
	<g>
		<g>
			<g>
				<path class="st1" d="M784.2,117.6h6.1l4.9,0.2c1.6,0.1,3.2,0.5,4.8,0.7c0.8,0.1,1.6,0.3,2.4,0.5l2.3,0.6l7.2-25.3l-3.5-0.9
					c-1.2-0.3-2.4-0.6-3.6-0.8c-2.4-0.3-4.8-0.8-7.2-1c-2.4-0.1-4.9-0.3-7.2-0.3h-6.1V117.6z"/>
			</g>
		</g>
		<g>
			<path class="st2" d="M802.3,104.7l-0.5,2.6c1.5,0.2,2.9,0.6,4.3,0.9l0.6-2.5C805.3,105.3,803.9,104.8,802.3,104.7z"/>
		</g>
		<g>
			<path class="st2" d="M794.2,103.7l-0.1,2.6c1.5,0.1,2.9,0.1,4.4,0.4l0.3-2.6C797.2,103.8,795.7,103.8,794.2,103.7z"/>
		</g>
		<g>
			<rect x="786" y="103.6" class="st2" width="4.5" height="2.6"/>
		</g>
	</g>
	<g>
		<g>
			<g>
				<path class="st1" d="M804.7,119.6c6.2,1.8,12.1,4.7,17.2,8.6l15.9-20.9c-7.7-5.9-16.6-10.4-26-13L804.7,119.6z"/>
			</g>
		</g>
		<g>
			<path class="st2" d="M825.2,113.5l-1.4,2.2l1.9,1.1c0.6,0.4,1.2,0.9,1.8,1.3l1.5-2.1c-0.6-0.4-1.2-0.9-1.9-1.3L825.2,113.5z"/>
		</g>
		<g>
			<polygon class="st2" points="818,109.6 816.9,112 820.9,113.9 822.1,111.6 			"/>
		</g>
		<g>
			<polygon class="st2" points="810.4,106.6 809.6,109.1 813.7,110.6 814.7,108.2 			"/>
		</g>
	</g>
	<g>
		<g>
			<g>
				<path class="st1" d="M822,128.3c5.1,3.9,9.6,8.8,12.9,14.4l22.5-13.6c-5.1-8.3-11.7-15.7-19.4-21.6L822,128.3z"/>
			</g>
		</g>
		<g>
			<path class="st2" d="M843.3,130l-2.1,1.6c0.9,1.2,1.8,2.3,2.5,3.6l2.2-1.4C845.2,132.5,844.2,131.3,843.3,130z"/>
		</g>
		<g>
			<polygon class="st2" points="838,123.8 836.1,125.6 839.1,128.9 841.1,127.2 			"/>
		</g>
		<g>
			<path class="st2" d="M832,118.2l-1.7,2c1.2,0.9,2.2,2,3.3,2.9l1.8-1.9C834.3,120.3,833.2,119.2,832,118.2z"/>
		</g>
	</g>
	<g>
		<g>
			<g>
				<path class="st1" d="M834.9,142.7c3.4,5.5,5.6,11.7,6.7,18.1l25.9-4.4c-1.6-9.6-5.1-18.9-10.2-27.3L834.9,142.7z"/>
			</g>
		</g>
		<g>
			<path class="st2" d="M854.1,152.1l-2.5,0.7c0.3,1.4,0.8,2.8,1.1,4.3l2.6-0.5C854.9,155.1,854.5,153.6,854.1,152.1z"/>
		</g>
		<g>
			<polygon class="st2" points="851.5,144.3 849.1,145.3 850.6,149.4 853.1,148.6 			"/>
		</g>
		<g>
			<path class="st2" d="M847.9,137l-2.3,1.3c0.8,1.2,1.3,2.6,2,3.9l2.4-1.1C849.3,139.7,848.7,138.2,847.9,137z"/>
		</g>
	</g>
	<g>
		<g>
			<g>
				<path class="st1" d="M841.6,160.7c0.2,1.6,0.6,3.2,0.6,4.8l0.1,2.4l0.1,1.2c0,0.4,0,1,0,1.5v12.2h26.3v-12.2c0-0.5,0-1,0-1.6
					l-0.1-1.8l-0.2-3.6c0-2.4-0.6-4.8-0.9-7.3L841.6,160.7z"/>
			</g>
		</g>
		<g>
			<rect x="853.9" y="176.5" class="st2" width="2.6" height="4.5"/>
		</g>
		<g>
			<path class="st2" d="M856.4,168.4l-2.6,0c0.1,1.5,0,3,0.1,4.5h2.6C856.5,171.4,856.5,169.9,856.4,168.4z"/>
		</g>
		<g>
			<path class="st2" d="M855.8,160.2l-2.6,0.4l0.3,2.2c0.1,0.7,0.1,1.5,0.1,2.2l2.6-0.2c0-0.8-0.1-1.5-0.1-2.3L855.8,160.2z"/>
		</g>
	</g>
	<g>
		<g>
			<g>
				<rect x="842.4" y="182.8" class="st1" width="26.3" height="24.4"/>
			</g>
		</g>
		<g>
			<rect x="853.9" y="200.8" class="st2" width="2.6" height="4.5"/>
		</g>
		<g>
			<rect x="853.9" y="192.7" class="st2" width="2.6" height="4.5"/>
		</g>
		<g>
			<rect x="853.9" y="184.7" class="st2" width="2.6" height="4.5"/>
		</g>
	</g>
	<g>
		<g>
			<g>
				<rect x="842.4" y="207.2" class="st1" width="26.3" height="24.4"/>
			</g>
		</g>
		<g>
			<rect x="853.9" y="225.2" class="st2" width="2.6" height="4.5"/>
		</g>
		<g>
			<rect x="853.9" y="217.1" class="st2" width="2.6" height="4.5"/>
		</g>
		<g>
			<rect x="853.9" y="209" class="st2" width="2.6" height="4.5"/>
		</g>
	</g>
	<g>
		<g>
			<g>
				<rect x="842.4" y="231.5" class="st1" width="26.3" height="24.4"/>
			</g>
		</g>
		<g>
			<rect x="853.9" y="249.6" class="st2" width="2.6" height="4.5"/>
		</g>
		<g>
			<rect x="853.9" y="241.4" class="st2" width="2.6" height="4.5"/>
		</g>
		<g>
			<rect x="853.9" y="233.4" class="st2" width="2.6" height="4.5"/>
		</g>
	</g>
</g>
<g class="st0">
	<g>
		<g>
			<g>
				<rect x="133.4" y="232.7" class="st1" width="26.3" height="23.9"/>
			</g>
		</g>
		<g>
			<rect x="145.6" y="234.4" class="st2" width="2.6" height="4.4"/>
		</g>
		<g>
			<rect x="145.6" y="242.4" class="st2" width="2.6" height="4.4"/>
		</g>
		<g>
			<rect x="145.6" y="250.3" class="st2" width="2.6" height="4.4"/>
		</g>
	</g>
	<g>
		<g>
			<g>
				<rect x="133.4" y="208.7" class="st1" width="26.3" height="23.9"/>
			</g>
		</g>
		<g>
			<rect x="145.6" y="210.5" class="st2" width="2.6" height="4.4"/>
		</g>
		<g>
			<rect x="145.6" y="218.5" class="st2" width="2.6" height="4.4"/>
		</g>
		<g>
			<rect x="145.6" y="226.4" class="st2" width="2.6" height="4.4"/>
		</g>
	</g>
	<g>
		<g>
			<g>
				<rect x="133.4" y="184.8" class="st1" width="26.3" height="23.9"/>
			</g>
		</g>
		<g>
			<rect x="145.6" y="186.5" class="st2" width="2.6" height="4.4"/>
		</g>
		<g>
			<rect x="145.6" y="194.5" class="st2" width="2.6" height="4.4"/>
		</g>
		<g>
			<rect x="145.6" y="202.5" class="st2" width="2.6" height="4.4"/>
		</g>
	</g>
	<g>
		<g>
			<g>
				<path class="st1" d="M159.7,184.8v-12v-3c0-1,0.1-1.6,0.1-2.5c0.1-1.6,0.1-3.2,0.4-4.8l-26-3.4c-0.4,2.4-0.5,4.8-0.6,7.2
					c0,1.2-0.1,2.5-0.1,3.5v3v12H159.7z"/>
			</g>
		</g>
		<g>
			<path class="st2" d="M145.7,167l2.6,0.1c0.1-1.4,0.1-2.9,0.2-4.3l-2.6-0.3C145.8,164,145.8,165.5,145.7,167z"/>
		</g>
		<g>
			<rect x="145.6" y="170.6" class="st2" width="2.6" height="4.4"/>
		</g>
		<g>
			<rect x="145.6" y="178.5" class="st2" width="2.6" height="4.4"/>
		</g>
	</g>
	<g>
		<g>
			<g>
				<path class="st1" d="M160.2,162.6c0.8-6.3,2.8-12.4,5.8-18l-23-12.6c-4.6,8.4-7.6,17.7-8.9,27.2L160.2,162.6z"/>
			</g>
		</g>
		<g>
			<polygon class="st2" points="150.9,143.5 153.3,144.5 155.2,140.6 152.9,139.4 			"/>
		</g>
		<g>
			<path class="st2" d="M148.2,151.1l2.5,0.7c0.3-1.4,0.9-2.7,1.4-4.1l-2.5-0.9C149.2,148.2,148.5,149.6,148.2,151.1z"/>
		</g>
		<g>
			<path class="st2" d="M146.5,158.9l2.6,0.4c0.2-1.4,0.4-2.9,0.8-4.2l-2.6-0.6C146.9,155.9,146.7,157.4,146.5,158.9z"/>
		</g>
	</g>
	<g>
		<g>
			<g>
				<path class="st1" d="M166,144.6c3-5.6,7.2-10.6,12.1-14.7l-17-20.1c-7.3,6.2-13.5,13.7-18.1,22.1L166,144.6z"/>
			</g>
		</g>
		<g>
			<path class="st2" d="M164.4,123.4l1.9,1.8c1-1.1,2.1-2,3.2-3l-1.7-2C166.6,121.4,165.4,122.3,164.4,123.4z"/>
		</g>
		<g>
			<path class="st2" d="M159.1,129.5l2.1,1.6l1.3-1.7c0.4-0.6,1-1.1,1.4-1.6l-2-1.7c-0.5,0.6-1,1.1-1.5,1.7L159.1,129.5z"/>
		</g>
		<g>
			<path class="st2" d="M154.6,136.2l2.3,1.3c0.8-1.2,1.5-2.5,2.3-3.7l-2.2-1.5C156.2,133.6,155.4,134.9,154.6,136.2z"/>
		</g>
	</g>
	<g>
		<g>
			<g>
				<path class="st1" d="M178.1,129.9c4.9-4.1,10.5-7.3,16.5-9.4L186,95.7c-9.1,3.1-17.6,7.9-24.9,14.1L178.1,129.9z"/>
			</g>
		</g>
		<g>
			<path class="st2" d="M184.1,109.5l1.1,2.4c1.3-0.7,2.6-1.2,4-1.6l-0.9-2.5C186.9,108.3,185.5,108.8,184.1,109.5z"/>
		</g>
		<g>
			<path class="st2" d="M177,113.4l1.4,2.2c1.3-0.7,2.4-1.6,3.7-2.2l-1.2-2.3C179.6,111.7,178.3,112.6,177,113.4z"/>
		</g>
		<g>
			<polygon class="st2" points="170.4,118 172.1,120 175.5,117.4 174,115.3 			"/>
		</g>
	</g>
	<g>
		<g>
			<g>
				<path class="st1" d="M194.6,120.5c1.5-0.6,3-0.9,4.6-1.3c0.8-0.2,1.5-0.5,2.3-0.6l2.4-0.3l2.4-0.4l2.4-0.1l2.4-0.1
					c0.4,0,0.9,0,1.4,0h1.5V91.3h-1.5c-0.5,0-1,0-1.6,0l-3.6,0.2l-3.6,0.2l-3.6,0.5l-3.6,0.6c-1.2,0.2-2.3,0.5-3.5,0.8
					c-2.3,0.6-4.7,1.1-6.9,2L194.6,120.5z"/>
			</g>
		</g>
		<g>
			<path class="st2" d="M207.6,103.8l0.2,2.6c1.4-0.1,2.9-0.2,4.3-0.2v-2.6C210.6,103.6,209.1,103.7,207.6,103.8z"/>
		</g>
		<g>
			<polygon class="st2" points="199.5,104.7 200,107.3 204.3,106.6 204,104 			"/>
		</g>
		<g>
			<path class="st2" d="M191.7,106.6l0.8,2.5l4.2-1.1l-0.6-2.6C194.6,105.8,193.2,106.2,191.7,106.6z"/>
		</g>
	</g>
	<g>
		<g>
			<g>
				<rect x="213.8" y="91.3" class="st1" width="23.9" height="26.3"/>
			</g>
		</g>
		<g>
			<rect x="231.6" y="103.6" class="st2" width="4.4" height="2.6"/>
		</g>
		<g>
			<rect x="223.6" y="103.6" class="st2" width="4.4" height="2.6"/>
		</g>
		<g>
			<rect x="215.6" y="103.6" class="st2" width="4.4" height="2.6"/>
		</g>
	</g>
	<g>
		<g>
			<g>
				<rect x="237.8" y="91.3" class="st1" width="23.9" height="26.3"/>
			</g>
		</g>
		<g>
			<rect x="255.5" y="103.6" class="st2" width="4.4" height="2.6"/>
		</g>
		<g>
			<rect x="247.5" y="103.6" class="st2" width="4.4" height="2.6"/>
		</g>
		<g>
			<rect x="239.6" y="103.6" class="st2" width="4.4" height="2.6"/>
		</g>
	</g>
	<g>
		<g>
			<g>
				<rect x="261.7" y="91.3" class="st1" width="23.9" height="26.3"/>
			</g>
		</g>
		<g>
			<rect x="279.4" y="103.6" class="st2" width="4.4" height="2.6"/>
		</g>
		<g>
			<rect x="271.5" y="103.6" class="st2" width="4.4" height="2.6"/>
		</g>
		<g>
			<rect x="263.5" y="103.6" class="st2" width="4.4" height="2.6"/>
		</g>
	</g>
	<g>
		<g>
			<g>
				<rect x="285.6" y="91.3" class="st1" width="23.9" height="26.3"/>
			</g>
		</g>
		<g>
			<rect x="303.4" y="103.6" class="st2" width="4.4" height="2.6"/>
		</g>
		<g>
			<rect x="295.4" y="103.6" class="st2" width="4.4" height="2.6"/>
		</g>
		<g>
			<rect x="287.5" y="103.6" class="st2" width="4.4" height="2.6"/>
		</g>
	</g>
	<g>
		<g>
			<g>
				<rect x="309.6" y="91.3" class="st1" width="23.9" height="26.3"/>
			</g>
		</g>
		<g>
			<rect x="327.3" y="103.6" class="st2" width="4.4" height="2.6"/>
		</g>
		<g>
			<rect x="319.3" y="103.6" class="st2" width="4.4" height="2.6"/>
		</g>
		<g>
			<rect x="311.4" y="103.6" class="st2" width="4.4" height="2.6"/>
		</g>
	</g>
	<g>
		<g>
			<g>
				<rect x="333.5" y="91.3" class="st1" width="23.9" height="26.3"/>
			</g>
		</g>
		<g>
			<rect x="351.2" y="103.6" class="st2" width="4.4" height="2.6"/>
		</g>
		<g>
			<rect x="343.3" y="103.6" class="st2" width="4.4" height="2.6"/>
		</g>
		<g>
			<rect x="335.3" y="103.6" class="st2" width="4.4" height="2.6"/>
		</g>
	</g>
	<g>
		<g>
			<g>
				<rect x="357.5" y="91.3" class="st1" width="23.9" height="26.3"/>
			</g>
		</g>
		<g>
			<rect x="375.2" y="103.6" class="st2" width="4.4" height="2.6"/>
		</g>
		<g>
			<rect x="367.2" y="103.6" class="st2" width="4.4" height="2.6"/>
		</g>
		<g>
			<rect x="359.3" y="103.6" class="st2" width="4.4" height="2.6"/>
		</g>
	</g>
</g>
<g class="st0">
	<g>
		<g>
			<g>
				<rect x="364.3" y="565.4" class="st1" width="22.9" height="26.3"/>
			</g>
		</g>
		<g>
			<rect x="366" y="576.8" class="st2" width="4.3" height="2.6"/>
		</g>
		<g>
			<rect x="373.6" y="576.8" class="st2" width="4.3" height="2.6"/>
		</g>
		<g>
			<rect x="381.2" y="576.8" class="st2" width="4.3" height="2.6"/>
		</g>
	</g>
	<g>
		<g>
			<g>
				<rect x="341.4" y="565.4" class="st1" width="22.9" height="26.3"/>
			</g>
		</g>
		<g>
			<rect x="343" y="576.8" class="st2" width="4.3" height="2.6"/>
		</g>
		<g>
			<rect x="350.7" y="576.8" class="st2" width="4.3" height="2.6"/>
		</g>
		<g>
			<rect x="358.3" y="576.8" class="st2" width="4.3" height="2.6"/>
		</g>
	</g>
	<g>
		<g>
			<g>
				<rect x="318.4" y="565.4" class="st1" width="22.9" height="26.3"/>
			</g>
		</g>
		<g>
			<rect x="320.1" y="576.8" class="st2" width="4.3" height="2.6"/>
		</g>
		<g>
			<rect x="327.8" y="576.8" class="st2" width="4.3" height="2.6"/>
		</g>
		<g>
			<rect x="335.4" y="576.8" class="st2" width="4.3" height="2.6"/>
		</g>
	</g>
	<g>
		<g>
			<g>
				<rect x="295.5" y="565.4" class="st1" width="22.9" height="26.3"/>
			</g>
		</g>
		<g>
			<rect x="297.2" y="576.8" class="st2" width="4.3" height="2.6"/>
		</g>
		<g>
			<rect x="304.9" y="576.8" class="st2" width="4.3" height="2.6"/>
		</g>
		<g>
			<rect x="312.5" y="576.8" class="st2" width="4.3" height="2.6"/>
		</g>
	</g>
	<g>
		<g>
			<g>
				<rect x="272.6" y="565.4" class="st1" width="22.9" height="26.3"/>
			</g>
		</g>
		<g>
			<rect x="274.3" y="576.8" class="st2" width="4.3" height="2.6"/>
		</g>
		<g>
			<rect x="281.9" y="576.8" class="st2" width="4.3" height="2.6"/>
		</g>
		<g>
			<rect x="289.5" y="576.8" class="st2" width="4.3" height="2.6"/>
		</g>
	</g>
	<g>
		<g>
			<g>
				<rect x="249.7" y="565.4" class="st1" width="22.9" height="26.3"/>
			</g>
		</g>
		<g>
			<rect x="251.4" y="576.8" class="st2" width="4.3" height="2.6"/>
		</g>
		<g>
			<rect x="259" y="576.8" class="st2" width="4.3" height="2.6"/>
		</g>
		<g>
			<rect x="266.6" y="576.8" class="st2" width="4.3" height="2.6"/>
		</g>
	</g>
	<g>
		<g>
			<g>
				<rect x="226.8" y="565.4" class="st1" width="22.9" height="26.3"/>
			</g>
		</g>
		<g>
			<rect x="228.5" y="576.8" class="st2" width="4.3" height="2.6"/>
		</g>
		<g>
			<rect x="236.1" y="576.8" class="st2" width="4.3" height="2.6"/>
		</g>
		<g>
			<rect x="243.7" y="576.8" class="st2" width="4.3" height="2.6"/>
		</g>
	</g>
	<g>
		<g>
			<g>
				<path class="st1" d="M226.8,565.4c-7.5-0.1-16,0.2-21.4-0.4l-3,26.1c4.5,0.5,9.5,0.6,13,0.6h11.5V565.4z"/>
			</g>
		</g>
		<g>
			<polygon class="st2" points="209.8,579.4 209.9,576.7 205.7,576.5 205.5,579.1 			"/>
		</g>
		<g>
			<rect x="213.2" y="576.8" class="st2" width="4.3" height="2.6"/>
		</g>
		<g>
			<rect x="220.8" y="576.8" class="st2" width="4.3" height="2.6"/>
		</g>
	</g>
	<g>
		<g>
			<g>
				<path class="st1" d="M205.4,565c-6.1-0.6-12-2.5-17.4-5.3l-11.9,23.4c8.2,4.2,17.1,7,26.2,7.9L205.4,565z"/>
			</g>
		</g>
		<g>
			<path class="st2" d="M187.2,574.8l1-2.4c-1.3-0.4-2.5-1.1-3.8-1.7l-1.1,2.4C184.5,573.6,185.8,574.3,187.2,574.8z"/>
		</g>
		<g>
			<path class="st2" d="M194.5,577.2l0.7-2.5c-1.3-0.3-2.7-0.6-4-1.2l-0.8,2.5C191.7,576.5,193.1,576.8,194.5,577.2z"/>
		</g>
		<g>
			<path class="st2" d="M202.1,578.7l0.4-2.6c-1.4-0.2-2.7-0.4-4.1-0.7l-0.5,2.6C199.2,578.3,200.6,578.5,202.1,578.7z"/>
		</g>
	</g>
	<g>
		<g>
			<g>
				<path class="st1" d="M188.1,559.7c-5.4-2.8-10.4-6.5-14.5-11l-19.3,17.9c6.2,6.7,13.7,12.3,21.8,16.5L188.1,559.7z"/>
			</g>
		</g>
		<g>
			<path class="st2" d="M167.5,562.6l1.8-2c-1-1-2.1-1.8-3-2.8l-1.9,1.8C165.4,560.7,166.5,561.6,167.5,562.6z"/>
		</g>
		<g>
			<polygon class="st2" points="173.6,567.4 175.1,565.3 171.8,562.8 170.1,564.8 			"/>
		</g>
		<g>
			<polygon class="st2" points="180.1,571.5 181.3,569.2 177.8,567.1 176.4,569.3 			"/>
		</g>
	</g>
	<g>
		<g>
			<g>
				<path class="st1" d="M173.6,548.8c-4.2-4.5-7.5-9.6-9.9-15.2l-24.2,10.1c3.6,8.5,8.6,16.3,14.9,23L173.6,548.8z"/>
			</g>
		</g>
		<g>
			<polygon class="st2" points="153.3,544.4 155.6,543.2 153.8,539.4 151.4,540.5 			"/>
		</g>
		<g>
			<path class="st2" d="M157.3,551l2.2-1.5c-0.8-1.1-1.5-2.3-2.2-3.5l-2.3,1.4C155.8,548.6,156.4,549.9,157.3,551z"/>
		</g>
		<g>
			<polygon class="st2" points="162.1,557 164,555.3 162.6,553.8 161.4,552.1 159.3,553.7 160.6,555.4 			"/>
		</g>
	</g>
	<g>
		<g>
			<g>
				<path class="st1" d="M163.7,533.5c-2.4-5.6-3.6-11.6-3.9-17.7l-26.3,1.1c0.4,9.1,2.3,18.3,5.9,26.8L163.7,533.5z"/>
			</g>
		</g>
		<g>
			<polygon class="st2" points="146.2,522.4 148.9,522 148.5,520 148.4,517.9 145.8,518.1 145.9,520.2 			"/>
		</g>
		<g>
			<path class="st2" d="M147.7,530l2.5-0.7c-0.3-1.3-0.8-2.7-0.9-4l-2.6,0.5C146.9,527.2,147.4,528.6,147.7,530z"/>
		</g>
		<g>
			<polygon class="st2" points="150.1,537.3 152.5,536.4 151.1,532.5 148.6,533.3 			"/>
		</g>
	</g>
	<g>
		<g>
			<g>
				<polygon class="st1" points="159.8,515.8 159.7,513.5 159.7,510.6 159.7,504.9 159.7,493.4 133.4,493.4 133.4,504.9 
					133.4,510.6 133.4,513.5 133.5,516.9 				"/>
			</g>
		</g>
		<g>
			<rect x="145.6" y="495.1" class="st2" width="2.6" height="4.3"/>
		</g>
		<g>
			<rect x="145.6" y="502.8" class="st2" width="2.6" height="4.3"/>
		</g>
		<g>
			<path class="st2" d="M145.6,514.6l2.6,0c-0.1-1.4,0-2.8-0.1-4.2h-2.6C145.6,511.8,145.5,513.2,145.6,514.6z"/>
		</g>
	</g>
	<g>
		<g>
			<g>
				<rect x="133.4" y="470.5" class="st1" width="26.3" height="22.9"/>
			</g>
		</g>
		<g>
			<rect x="145.6" y="472.2" class="st2" width="2.6" height="4.3"/>
		</g>
		<g>
			<rect x="145.6" y="479.8" class="st2" width="2.6" height="4.3"/>
		</g>
		<g>
			<rect x="145.6" y="487.4" class="st2" width="2.6" height="4.3"/>
		</g>
	</g>
	<g>
		<g>
			<g>
				<rect x="133.4" y="447.6" class="st1" width="26.3" height="22.9"/>
			</g>
		</g>
		<g>
			<rect x="145.6" y="449.3" class="st2" width="2.6" height="4.3"/>
		</g>
		<g>
			<rect x="145.6" y="456.9" class="st2" width="2.6" height="4.3"/>
		</g>
		<g>
			<rect x="145.6" y="464.5" class="st2" width="2.6" height="4.3"/>
		</g>
	</g>
	<g>
		<g>
			<g>
				<rect x="133.4" y="424.7" class="st1" width="26.3" height="22.9"/>
			</g>
		</g>
		<g>
			<rect x="145.6" y="426.4" class="st2" width="2.6" height="4.3"/>
		</g>
		<g>
			<rect x="145.6" y="434" class="st2" width="2.6" height="4.3"/>
		</g>
		<g>
			<rect x="145.6" y="441.6" class="st2" width="2.6" height="4.3"/>
		</g>
	</g>
</g>
<g>
	<path class="st11" d="M595.4,653.1H406.7c-8.7,0-15.7-7-15.7-15.7V519.6c0-8.7,7-15.7,15.7-15.7h188.7c8.7,0,15.7,7,15.7,15.7
		v117.9C611,646.1,604,653.1,595.4,653.1z"/>
</g>
<g>
	<path class="st8" d="M240.9,417.5H52.2c-8.7,0-15.7-7-15.7-15.7V284c0-8.7,7-15.7,15.7-15.7h188.7c8.7,0,15.7,7,15.7,15.7v117.9
		C256.5,410.5,249.5,417.5,240.9,417.5z"/>
</g>
<g>
	<path class="st6" d="M595.4,179.1H406.7c-8.7,0-15.7-7-15.7-15.7V45.5c0-8.7,7-15.7,15.7-15.7h188.7c8.7,0,15.7,7,15.7,15.7v117.9
		C611,172.1,604,179.1,595.4,179.1z"/>
</g>
<g>
	<path class="st4" d="M949.9,417.5H761.2c-8.7,0-15.7-7-15.7-15.7V284c0-8.7,7-15.7,15.7-15.7h188.7c8.7,0,15.7,7,15.7,15.7v117.9
		C965.6,410.5,958.5,417.5,949.9,417.5z"/>
</g>
<g>
	<path class="st15" d="M480.3,579.6h-5.6l-1.3,4.7h-2.7l5.6-18.7h2.5l5.6,18.7h-2.7L480.3,579.6z M475.3,577.6h4.4l-2.2-7.6h-0.1
		L475.3,577.6z"/>
	<path class="st15" d="M493.5,582.3c-0.4,0.7-0.9,1.3-1.4,1.7c-0.6,0.4-1.3,0.6-2,0.6c-1.3,0-2.3-0.5-3-1.5c-0.7-1-1.1-2.5-1.1-4.6
		v-8.1h2.6v8.1c0,1.5,0.2,2.5,0.5,3.1c0.3,0.6,0.9,0.9,1.6,0.9c0.6,0,1.2-0.1,1.6-0.4c0.4-0.3,0.8-0.7,1.1-1.3v-10.4h2.6v13.9h-2.2
		L493.5,582.3z"/>
	<path class="st15" d="M502.3,567v3.5h2.2v1.9h-2.2v8.3c0,0.7,0.1,1.2,0.3,1.5c0.2,0.3,0.5,0.5,0.9,0.5c0.1,0,0.3,0,0.4,0
		c0.1,0,0.3-0.1,0.4-0.1l0.3,1.8c-0.2,0.1-0.5,0.2-0.8,0.3c-0.3,0.1-0.6,0.1-0.9,0.1c-1,0-1.8-0.3-2.3-1c-0.6-0.6-0.8-1.7-0.8-3.1
		v-8.3h-1.8v-1.9h1.8V567H502.3z"/>
	<path class="st15" d="M509.4,572.3c0.4-0.7,0.9-1.2,1.5-1.6c0.6-0.4,1.2-0.6,1.9-0.6c1.3,0,2.2,0.5,3,1.4c0.7,0.9,1.1,2.3,1.1,4.3
		v8.5h-2.6v-8.5c0-1.3-0.2-2.2-0.6-2.8c-0.4-0.6-0.9-0.8-1.6-0.8c-0.6,0-1.1,0.1-1.5,0.4s-0.8,0.7-1,1.2v10.5h-2.6v-20h2.6V572.3z"
		/>
	<path class="st15" d="M530.6,577.7c0,2.1-0.5,3.8-1.5,5.1c-1,1.2-2.3,1.9-4,1.9c-1.7,0-3-0.6-4-1.9c-1-1.2-1.5-2.9-1.5-5.1v-5.4
		c0-2.1,0.5-3.8,1.5-5.1c1-1.2,2.3-1.9,4-1.9c1.7,0,3,0.6,4,1.9c1,1.2,1.5,2.9,1.5,5.1V577.7z M527.9,571.9c0-1.4-0.2-2.5-0.8-3.3
		c-0.5-0.8-1.2-1.2-2.1-1.2s-1.6,0.4-2.1,1.2c-0.5,0.8-0.7,1.9-0.7,3.3v6.1c0,1.4,0.3,2.5,0.8,3.3c0.5,0.8,1.2,1.2,2.1,1.2
		c0.9,0,1.6-0.4,2.1-1.2c0.5-0.8,0.7-1.9,0.7-3.4V571.9z"/>
</g>
<g>
	<path class="st15" d="M96.8,299.7h-5.6l-1.3,4.7h-2.7l5.6-18.7h2.5l5.6,18.7h-2.7L96.8,299.7z M91.8,297.7h4.4l-2.2-7.6H94
		L91.8,297.7z"/>
	<path class="st15" d="M105.6,302.5h7.6v2H103v-18.7h2.6V302.5z"/>
	<path class="st15" d="M115.6,304.4v-18.7h5.2c1.8,0,3.2,0.4,4.2,1.3c1,0.8,1.5,2.1,1.5,3.8c0,0.9-0.2,1.6-0.7,2.3s-1,1.2-1.8,1.5
		c1.1,0.2,1.9,0.7,2.5,1.5c0.6,0.9,0.9,1.9,0.9,3c0,1.7-0.5,3-1.5,3.9c-1,0.9-2.3,1.4-4.1,1.4H115.6z M118.2,293.9h3
		c0.8,0,1.5-0.3,2-0.8c0.5-0.5,0.7-1.3,0.7-2.2c0-1-0.3-1.8-0.8-2.3c-0.5-0.5-1.3-0.8-2.3-0.8h-2.6V293.9z M118.2,295.7v6.7h3.6
		c0.9,0,1.7-0.3,2.2-0.9c0.5-0.6,0.8-1.4,0.8-2.4c0-1-0.3-1.8-0.8-2.5c-0.5-0.6-1.2-0.9-2.1-1h-0.1H118.2z"/>
	<path class="st15" d="M133,304.4h-2.6v-18.7h2.6V304.4z"/>
	<path class="st15" d="M145.3,299.8c0-0.9-0.2-1.6-0.7-2.1c-0.5-0.6-1.3-1.1-2.6-1.5c-1.8-0.5-3.1-1.3-4-2.1c-0.9-0.9-1.4-2-1.4-3.5
		c0-1.5,0.5-2.7,1.6-3.6c1-1,2.4-1.4,4-1.4c1.7,0,3.1,0.5,4.2,1.6c1,1.1,1.5,2.4,1.5,4l0,0.1h-2.5c0-1.1-0.3-2-0.9-2.7
		c-0.6-0.7-1.3-1-2.3-1c-0.9,0-1.6,0.3-2.1,0.9c-0.5,0.6-0.8,1.3-0.8,2.2c0,0.8,0.3,1.5,0.8,2s1.4,1,2.7,1.5c1.7,0.6,3,1.3,3.9,2.2
		c0.9,0.9,1.3,2.1,1.3,3.5c0,1.5-0.5,2.7-1.6,3.6c-1,0.9-2.4,1.4-4.1,1.4c-1.6,0-3.1-0.5-4.3-1.5c-1.2-1-1.8-2.4-1.8-4.2l0-0.1h2.5
		c0,1.3,0.3,2.2,1,2.8c0.7,0.6,1.5,0.9,2.5,0.9c1,0,1.7-0.3,2.3-0.8C145,301.4,145.3,300.7,145.3,299.8z"/>
	<path class="st15" d="M159.2,302.5h7.6v2h-10.2v-18.7h2.6V302.5z"/>
	<path class="st15" d="M176.2,304.4c-0.1-0.4-0.2-0.8-0.3-1.1c-0.1-0.3-0.1-0.7-0.1-1c-0.4,0.7-0.9,1.3-1.5,1.7
		c-0.6,0.4-1.3,0.7-2.1,0.7c-1.2,0-2.2-0.4-2.9-1.1c-0.7-0.7-1-1.7-1-3c0-1.3,0.5-2.3,1.4-3.1c0.9-0.8,2.2-1.1,3.8-1.1h2.1V295
		c0-0.8-0.2-1.5-0.6-2c-0.4-0.5-0.9-0.7-1.6-0.7c-0.6,0-1.1,0.2-1.5,0.6c-0.4,0.4-0.6,0.9-0.6,1.6l-2.5,0l0-0.1
		c-0.1-1.1,0.4-2,1.3-2.8c0.9-0.8,2.1-1.2,3.5-1.2c1.4,0,2.5,0.4,3.3,1.2c0.9,0.8,1.3,2,1.3,3.5v6.4c0,0.5,0,1,0.1,1.5
		c0.1,0.5,0.2,1,0.3,1.5H176.2z M172.8,302.7c0.7,0,1.3-0.2,1.9-0.7c0.5-0.4,0.9-1,1.1-1.6V298h-2.2c-0.8,0-1.4,0.3-1.9,0.8
		c-0.5,0.5-0.7,1.1-0.7,1.8c0,0.6,0.2,1.2,0.5,1.5S172.3,302.7,172.8,302.7z"/>
	<path class="st15" d="M188.6,304.4c-0.1-0.4-0.2-0.8-0.3-1.1c-0.1-0.3-0.1-0.7-0.1-1c-0.4,0.7-0.9,1.3-1.5,1.7
		c-0.6,0.4-1.3,0.7-2.1,0.7c-1.2,0-2.2-0.4-2.9-1.1c-0.7-0.7-1-1.7-1-3c0-1.3,0.5-2.3,1.4-3.1c0.9-0.8,2.2-1.1,3.8-1.1h2.1V295
		c0-0.8-0.2-1.5-0.6-2c-0.4-0.5-0.9-0.7-1.6-0.7c-0.6,0-1.1,0.2-1.5,0.6c-0.4,0.4-0.6,0.9-0.6,1.6l-2.5,0l0-0.1
		c-0.1-1.1,0.4-2,1.3-2.8c0.9-0.8,2.1-1.2,3.5-1.2c1.4,0,2.5,0.4,3.3,1.2c0.9,0.8,1.3,2,1.3,3.5v6.4c0,0.5,0,1,0.1,1.5
		c0.1,0.5,0.2,1,0.3,1.5H188.6z M185.2,302.7c0.7,0,1.3-0.2,1.9-0.7c0.5-0.4,0.9-1,1.1-1.6V298H186c-0.8,0-1.4,0.3-1.9,0.8
		c-0.5,0.5-0.7,1.1-0.7,1.8c0,0.6,0.2,1.2,0.5,1.5S184.7,302.7,185.2,302.7z"/>
	<path class="st15" d="M202.6,299.8c0-0.9-0.2-1.6-0.7-2.1c-0.5-0.6-1.3-1.1-2.6-1.5c-1.8-0.5-3.1-1.3-4-2.1c-0.9-0.9-1.4-2-1.4-3.5
		c0-1.5,0.5-2.7,1.6-3.6c1-1,2.4-1.4,4-1.4c1.7,0,3.1,0.5,4.2,1.6c1,1.1,1.5,2.4,1.5,4l0,0.1h-2.5c0-1.1-0.3-2-0.9-2.7
		c-0.6-0.7-1.3-1-2.3-1c-0.9,0-1.6,0.3-2.2,0.9c-0.5,0.6-0.8,1.3-0.8,2.2c0,0.8,0.3,1.5,0.8,2c0.5,0.5,1.4,1,2.7,1.5
		c1.7,0.6,3,1.3,3.9,2.2c0.9,0.9,1.3,2.1,1.3,3.5c0,1.5-0.5,2.7-1.6,3.6c-1,0.9-2.4,1.4-4.1,1.4c-1.6,0-3.1-0.5-4.3-1.5
		s-1.8-2.4-1.8-4.2l0-0.1h2.5c0,1.3,0.3,2.2,1,2.8c0.7,0.6,1.5,0.9,2.5,0.9c1,0,1.7-0.3,2.3-0.8
		C202.3,301.4,202.6,300.7,202.6,299.8z"/>
	<path class="st15" d="M117.6,331.3c0-0.9-0.2-1.6-0.7-2.1c-0.5-0.6-1.3-1.1-2.6-1.5c-1.8-0.5-3.1-1.3-4-2.1c-0.9-0.9-1.4-2-1.4-3.5
		c0-1.5,0.5-2.7,1.6-3.6c1-1,2.4-1.4,4-1.4c1.7,0,3.1,0.5,4.2,1.6c1,1.1,1.5,2.4,1.5,4l0,0.1h-2.5c0-1.1-0.3-2-0.9-2.7s-1.3-1-2.3-1
		c-0.9,0-1.6,0.3-2.1,0.9s-0.8,1.3-0.8,2.2c0,0.8,0.3,1.5,0.8,2c0.5,0.5,1.4,1,2.7,1.5c1.7,0.6,3,1.3,3.9,2.2
		c0.9,0.9,1.3,2.1,1.3,3.5c0,1.5-0.5,2.7-1.6,3.6c-1,0.9-2.4,1.4-4.1,1.4c-1.6,0-3.1-0.5-4.3-1.5s-1.8-2.4-1.8-4.2l0-0.1h2.5
		c0,1.3,0.3,2.2,1,2.8c0.7,0.6,1.5,0.9,2.5,0.9c1,0,1.7-0.3,2.3-0.8C117.3,332.9,117.6,332.2,117.6,331.3z"/>
	<path class="st15" d="M123.1,336v-18.7h5.3c2,0,3.7,0.7,4.9,2.2c1.3,1.5,1.9,3.4,1.9,5.8v2.7c0,2.4-0.6,4.3-1.9,5.8
		c-1.3,1.5-2.9,2.2-4.9,2.2H123.1z M125.7,319.3V334h2.7c1.3,0,2.3-0.6,3.1-1.7c0.8-1.1,1.2-2.6,1.2-4.3v-2.7c0-1.7-0.4-3.2-1.2-4.3
		c-0.8-1.1-1.8-1.7-3.1-1.7H125.7z"/>
	<path class="st15" d="M142.3,327.6H141v8.4h-2.6v-18.7h2.6v8.2h1.1l5.2-8.2h3.2l-6.2,8.8l6.6,9.9h-3.3L142.3,327.6z"/>
	<path class="st15" d="M159.3,336v-12h-1.8v-1.9h1.8v-1.8c0-1.5,0.4-2.6,1.1-3.4c0.7-0.8,1.7-1.2,3-1.2c0.3,0,0.5,0,0.8,0.1
		c0.3,0,0.6,0.1,0.9,0.2l-0.2,1.9c-0.2,0-0.3-0.1-0.5-0.1c-0.2,0-0.4,0-0.6,0c-0.6,0-1,0.2-1.3,0.7c-0.3,0.4-0.5,1.1-0.5,1.9v1.8
		h2.3v1.9h-2.3v12H159.3z"/>
	<path class="st15" d="M165.7,328.9c0-2.1,0.5-3.7,1.5-5.1s2.3-2,4-2c1.7,0,3,0.7,4,2c1,1.3,1.5,3,1.5,5.1v0.3
		c0,2.1-0.5,3.8-1.5,5.1c-1,1.3-2.3,2-4,2c-1.7,0-3.1-0.7-4-2c-1-1.3-1.5-3-1.5-5.1V328.9z M168.3,329.2c0,1.5,0.2,2.7,0.7,3.6
		c0.5,0.9,1.2,1.4,2.2,1.4c1,0,1.7-0.5,2.1-1.4c0.5-0.9,0.7-2.2,0.7-3.6v-0.3c0-1.5-0.2-2.7-0.7-3.6c-0.5-1-1.2-1.4-2.2-1.4
		s-1.7,0.5-2.2,1.4c-0.5,1-0.7,2.2-0.7,3.6V329.2z"/>
	<path class="st15" d="M185.1,324.3l-1.1-0.1c-0.5,0-1,0.2-1.4,0.5c-0.4,0.3-0.6,0.8-0.8,1.4v9.9h-2.6v-13.9h2.4l0.2,2.1
		c0.3-0.7,0.7-1.3,1.2-1.7c0.5-0.4,1-0.6,1.7-0.6c0.2,0,0.3,0,0.5,0c0.1,0,0.3,0.1,0.4,0.1L185.1,324.3z"/>
	<path class="st15" d="M91.6,367.8c-1.7,0-3.1-0.6-4.1-1.9s-1.5-2.9-1.5-4.9v-0.6c0-2,0.5-3.7,1.5-5c1-1.3,2.2-2,3.8-2
		c1.6,0,2.8,0.6,3.6,1.7c0.8,1.1,1.2,2.6,1.2,4.5v1.5h-7.5c0,1.4,0.3,2.6,0.8,3.5c0.5,0.9,1.3,1.3,2.3,1.3c0.7,0,1.4-0.1,1.9-0.3
		c0.5-0.2,1-0.6,1.5-1l0.8,1.6c-0.5,0.5-1.1,0.9-1.8,1.2C93.5,367.6,92.6,367.8,91.6,367.8z M91.4,355.4c-0.8,0-1.4,0.3-1.8,1
		c-0.4,0.7-0.7,1.6-0.8,2.8h4.9v-0.3c0-1-0.2-1.9-0.6-2.5C92.7,355.7,92.2,355.4,91.4,355.4z"/>
	<path class="st15" d="M110.6,361.9L110.6,361.9c0.1,1.9-0.5,3.3-1.5,4.4c-1.1,1-2.5,1.5-4.4,1.5c-1.9,0-3.4-0.6-4.6-1.8
		c-1.1-1.2-1.7-2.9-1.7-5.2v-5.2c0-2.2,0.6-3.9,1.7-5.2c1.1-1.2,2.6-1.9,4.5-1.9c1.9,0,3.4,0.5,4.5,1.5c1.1,1,1.6,2.4,1.6,4.3l0,0.1
		h-2.5c0-1.3-0.3-2.3-0.9-2.9c-0.6-0.6-1.5-0.9-2.6-0.9c-1.1,0-2,0.4-2.7,1.3c-0.6,0.9-0.9,2.1-0.9,3.7v5.2c0,1.6,0.3,2.9,1,3.7
		c0.6,0.9,1.5,1.3,2.7,1.3c1.1,0,2-0.3,2.5-0.9c0.6-0.6,0.8-1.6,0.8-3H110.6z"/>
	<path class="st15" d="M112.6,360.4c0-2.1,0.5-3.8,1.5-5.1c1-1.3,2.3-2,4-2c1.7,0,3,0.7,4,2c1,1.3,1.5,3,1.5,5.1v0.3
		c0,2.1-0.5,3.8-1.5,5.1c-1,1.3-2.3,2-4,2c-1.7,0-3.1-0.7-4-2c-1-1.3-1.5-3-1.5-5.1V360.4z M115.2,360.8c0,1.5,0.2,2.7,0.7,3.6
		c0.5,0.9,1.2,1.4,2.2,1.4c0.9,0,1.7-0.5,2.1-1.4c0.5-0.9,0.7-2.2,0.7-3.6v-0.3c0-1.5-0.2-2.7-0.7-3.6c-0.5-1-1.2-1.4-2.2-1.4
		s-1.7,0.5-2.1,1.4c-0.5,1-0.7,2.2-0.7,3.6V360.8z"/>
	<path class="st15" d="M128.4,353.6l0.1,1.9c0.4-0.7,0.9-1.2,1.5-1.6c0.6-0.4,1.3-0.6,2.1-0.6c0.8,0,1.4,0.2,2,0.6
		c0.6,0.4,1,1.1,1.3,1.9c0.4-0.8,0.9-1.4,1.5-1.9c0.6-0.5,1.3-0.7,2.2-0.7c1.2,0,2.2,0.5,2.8,1.5c0.7,1,1,2.5,1,4.5v8.2h-2.6v-8.2
		c0-1.4-0.2-2.5-0.5-3c-0.4-0.6-0.9-0.9-1.6-0.9c-0.6,0-1.1,0.2-1.5,0.7c-0.4,0.4-0.7,1-0.9,1.8c0,0.2,0,0.3,0,0.5
		c0,0.2,0,0.3,0,0.5v8.7h-2.6v-8.2c0-1.4-0.2-2.4-0.6-3c-0.4-0.6-0.9-0.9-1.6-0.9c-0.6,0-1,0.2-1.4,0.5c-0.4,0.3-0.7,0.7-0.9,1.3
		v10.4H126v-13.9H128.4z"/>
	<path class="st15" d="M148.3,353.6l0.1,1.9c0.4-0.7,0.9-1.2,1.5-1.6c0.6-0.4,1.3-0.6,2.1-0.6c0.8,0,1.4,0.2,2,0.6
		c0.6,0.4,1,1.1,1.3,1.9c0.4-0.8,0.9-1.4,1.5-1.9c0.6-0.5,1.3-0.7,2.2-0.7c1.2,0,2.2,0.5,2.8,1.5c0.7,1,1,2.5,1,4.5v8.2h-2.6v-8.2
		c0-1.4-0.2-2.5-0.5-3c-0.4-0.6-0.9-0.9-1.6-0.9c-0.6,0-1.1,0.2-1.5,0.7c-0.4,0.4-0.7,1-0.9,1.8c0,0.2,0,0.3,0,0.5
		c0,0.2,0,0.3,0,0.5v8.7H153v-8.2c0-1.4-0.2-2.4-0.6-3c-0.4-0.6-0.9-0.9-1.6-0.9c-0.6,0-1,0.2-1.4,0.5c-0.4,0.3-0.7,0.7-0.9,1.3
		v10.4h-2.6v-13.9H148.3z"/>
	<path class="st15" d="M170.8,367.8c-1.7,0-3.1-0.6-4.1-1.9c-1-1.3-1.5-2.9-1.5-4.9v-0.6c0-2,0.5-3.7,1.5-5c1-1.3,2.2-2,3.8-2
		c1.6,0,2.8,0.6,3.6,1.7c0.8,1.1,1.2,2.6,1.2,4.5v1.5h-7.5c0,1.4,0.3,2.6,0.8,3.5c0.5,0.9,1.3,1.3,2.3,1.3c0.7,0,1.4-0.1,1.9-0.3
		c0.5-0.2,1-0.6,1.5-1l0.8,1.6c-0.5,0.5-1.1,0.9-1.8,1.2C172.6,367.6,171.7,367.8,170.8,367.8z M170.5,355.4c-0.8,0-1.4,0.3-1.8,1
		c-0.4,0.7-0.7,1.6-0.8,2.8h4.9v-0.3c0-1-0.2-1.9-0.6-2.5C171.9,355.7,171.3,355.4,170.5,355.4z"/>
	<path class="st15" d="M183.7,355.8l-1.1-0.1c-0.5,0-1,0.2-1.4,0.5c-0.4,0.3-0.6,0.8-0.8,1.4v9.9h-2.6v-13.9h2.4l0.2,2.1
		c0.3-0.7,0.7-1.3,1.2-1.7c0.5-0.4,1-0.6,1.7-0.6c0.2,0,0.3,0,0.5,0c0.1,0,0.3,0.1,0.4,0.1L183.7,355.8z"/>
	<path class="st15" d="M190.4,365.8c0.6,0,1.2-0.2,1.6-0.7c0.4-0.5,0.6-1.2,0.6-2h2.3l0,0.1c0,1.3-0.4,2.4-1.3,3.3
		c-0.9,0.9-2,1.3-3.3,1.3c-1.7,0-3-0.7-4-2c-0.9-1.3-1.4-3-1.4-5v-0.5c0-2,0.5-3.7,1.4-5c0.9-1.3,2.3-2,4-2c1.4,0,2.5,0.5,3.4,1.4
		c0.9,0.9,1.3,2.2,1.3,3.7l0,0.1h-2.4c0-0.9-0.2-1.7-0.6-2.3c-0.4-0.6-1-0.9-1.6-0.9c-1,0-1.7,0.5-2.1,1.4c-0.4,0.9-0.6,2.1-0.6,3.6
		v0.5c0,1.5,0.2,2.6,0.6,3.6S189.4,365.8,190.4,365.8z"/>
	<path class="st15" d="M202.5,367.8c-1.7,0-3.1-0.6-4.1-1.9c-1-1.3-1.5-2.9-1.5-4.9v-0.6c0-2,0.5-3.7,1.5-5c1-1.3,2.2-2,3.8-2
		c1.6,0,2.8,0.6,3.6,1.7c0.8,1.1,1.2,2.6,1.2,4.5v1.5h-7.5c0,1.4,0.3,2.6,0.8,3.5c0.5,0.9,1.3,1.3,2.3,1.3c0.7,0,1.4-0.1,1.9-0.3
		c0.5-0.2,1-0.6,1.5-1l0.8,1.6c-0.5,0.5-1.1,0.9-1.8,1.2C204.3,367.6,203.4,367.8,202.5,367.8z M202.2,355.4c-0.8,0-1.4,0.3-1.8,1
		c-0.4,0.7-0.7,1.6-0.8,2.8h4.9v-0.3c0-1-0.2-1.9-0.6-2.5C203.6,355.7,203,355.4,202.2,355.4z"/>
	<path class="st15" d="M99.1,394.3h-5.6l-1.3,4.7h-2.7l5.6-18.7h2.5l5.6,18.7h-2.7L99.1,394.3z M94.1,392.3h4.4l-2.2-7.6h-0.1
		L94.1,392.3z"/>
	<path class="st15" d="M115.4,392.5c0,2.1-0.4,3.7-1.2,4.9c-0.8,1.2-2,1.8-3.4,1.8c-0.7,0-1.3-0.1-1.8-0.4c-0.5-0.3-1-0.7-1.3-1.2
		v6.7H105v-19.2h2.2l0.2,1.7c0.4-0.6,0.8-1.1,1.4-1.4c0.5-0.3,1.2-0.5,1.9-0.5c1.5,0,2.6,0.7,3.4,2c0.8,1.3,1.2,3.1,1.2,5.4V392.5z
		 M112.8,392.3c0-1.6-0.2-2.9-0.7-3.8c-0.5-1-1.1-1.5-2.1-1.5c-0.6,0-1.1,0.2-1.5,0.5c-0.4,0.3-0.7,0.8-1,1.3v7
		c0.2,0.5,0.6,0.9,1,1.2c0.4,0.3,0.9,0.4,1.5,0.4c0.9,0,1.6-0.4,2.1-1.3c0.5-0.9,0.7-2,0.7-3.5V392.3z"/>
	<path class="st15" d="M120.7,399h-2.6v-20h2.6V399z"/>
	<path class="st15" d="M126.7,381.5h-2.6V379h2.6V381.5z M126.7,399h-2.6v-13.9h2.6V399z"/>
	<path class="st15" d="M134.7,397.3c0.6,0,1.2-0.2,1.6-0.7c0.4-0.5,0.6-1.2,0.6-2h2.3l0,0.1c0,1.3-0.4,2.4-1.3,3.3
		c-0.9,0.9-2,1.3-3.3,1.3c-1.7,0-3-0.7-4-2c-0.9-1.3-1.4-3-1.4-5v-0.5c0-2,0.5-3.7,1.4-5c0.9-1.3,2.3-2,4-2c1.4,0,2.5,0.5,3.4,1.4
		c0.9,0.9,1.3,2.2,1.3,3.7l0,0.1H137c0-0.9-0.2-1.7-0.6-2.3c-0.4-0.6-1-0.9-1.6-0.9c-1,0-1.7,0.5-2.1,1.4s-0.6,2.1-0.6,3.6v0.5
		c0,1.5,0.2,2.6,0.6,3.6C133,396.9,133.7,397.3,134.7,397.3z"/>
	<path class="st15" d="M149,399c-0.1-0.4-0.2-0.8-0.3-1.1c-0.1-0.3-0.1-0.7-0.1-1c-0.4,0.7-0.9,1.3-1.5,1.7
		c-0.6,0.4-1.3,0.7-2.1,0.7c-1.2,0-2.2-0.4-2.9-1.1c-0.7-0.7-1-1.7-1-3c0-1.3,0.5-2.3,1.4-3.1c0.9-0.8,2.2-1.1,3.8-1.1h2.1v-1.4
		c0-0.8-0.2-1.5-0.6-2c-0.4-0.5-0.9-0.7-1.6-0.7c-0.6,0-1.1,0.2-1.5,0.6c-0.4,0.4-0.6,0.9-0.6,1.6l-2.5,0l0-0.1
		c-0.1-1.1,0.4-2,1.3-2.8c0.9-0.8,2.1-1.2,3.5-1.2c1.4,0,2.5,0.4,3.3,1.2c0.9,0.8,1.3,2,1.3,3.5v6.4c0,0.5,0,1,0.1,1.5
		c0.1,0.5,0.2,1,0.3,1.5H149z M145.6,397.3c0.7,0,1.3-0.2,1.9-0.7c0.5-0.4,0.9-1,1.1-1.6v-2.5h-2.2c-0.8,0-1.4,0.3-1.9,0.8
		c-0.5,0.5-0.7,1.1-0.7,1.8c0,0.6,0.2,1.2,0.5,1.5C144.6,397.1,145.1,397.3,145.6,397.3z"/>
	<path class="st15" d="M157.5,381.7v3.5h2.2v1.9h-2.2v8.3c0,0.7,0.1,1.2,0.3,1.5c0.2,0.3,0.5,0.5,0.9,0.5c0.1,0,0.3,0,0.4,0
		c0.1,0,0.3-0.1,0.4-0.1l0.3,1.8c-0.2,0.1-0.5,0.2-0.8,0.3c-0.3,0.1-0.6,0.1-0.9,0.1c-1,0-1.8-0.3-2.3-1c-0.6-0.6-0.8-1.7-0.8-3.1
		V387h-1.8v-1.9h1.8v-3.5H157.5z"/>
	<path class="st15" d="M164.9,381.5h-2.6V379h2.6V381.5z M164.9,399h-2.6v-13.9h2.6V399z"/>
	<path class="st15" d="M167.5,392c0-2.1,0.5-3.7,1.5-5.1c1-1.3,2.3-2,4-2c1.7,0,3,0.7,4,2c1,1.3,1.5,3,1.5,5.1v0.3
		c0,2.1-0.5,3.8-1.5,5.1c-1,1.3-2.3,2-4,2c-1.7,0-3.1-0.7-4-2c-1-1.3-1.5-3-1.5-5.1V392z M170.1,392.3c0,1.5,0.2,2.7,0.7,3.6
		c0.5,0.9,1.2,1.4,2.2,1.4c0.9,0,1.7-0.5,2.1-1.4c0.5-0.9,0.7-2.2,0.7-3.6V392c0-1.5-0.2-2.7-0.7-3.6c-0.5-1-1.2-1.4-2.2-1.4
		s-1.7,0.5-2.1,1.4c-0.5,1-0.7,2.2-0.7,3.6V392.3z"/>
	<path class="st15" d="M183.3,385.2l0.2,2.1c0.4-0.7,0.9-1.3,1.5-1.7c0.6-0.4,1.3-0.6,2-0.6c1.2,0,2.2,0.5,2.9,1.4
		c0.7,0.9,1,2.3,1,4.2v8.5h-2.6v-8.5c0-1.3-0.2-2.2-0.5-2.8c-0.4-0.5-0.9-0.8-1.6-0.8c-0.6,0-1.1,0.2-1.5,0.5
		c-0.4,0.3-0.8,0.7-1,1.3V399h-2.6v-13.9H183.3z"/>
	<path class="st15" d="M200.5,395.5c0-0.5-0.2-1-0.5-1.4c-0.4-0.4-1-0.8-2.1-1.2c-1.4-0.5-2.5-1.1-3.2-1.8c-0.7-0.6-1.1-1.4-1.1-2.4
		c0-1.1,0.4-2,1.3-2.7c0.9-0.8,2-1.1,3.4-1.1c1.4,0,2.6,0.4,3.5,1.2c0.9,0.8,1.3,1.8,1.3,3l0,0.1h-2.5c0-0.7-0.2-1.2-0.6-1.7
		c-0.4-0.5-0.9-0.7-1.6-0.7c-0.7,0-1.2,0.2-1.6,0.6c-0.4,0.4-0.6,0.8-0.6,1.3c0,0.5,0.2,0.9,0.5,1.3c0.3,0.3,1,0.7,2.1,1.2
		c1.5,0.5,2.5,1.1,3.3,1.8c0.7,0.7,1.1,1.5,1.1,2.5c0,1.2-0.4,2.1-1.3,2.8c-0.9,0.7-2,1.1-3.5,1.1c-1.6,0-2.8-0.4-3.7-1.3
		c-0.9-0.9-1.3-1.9-1.3-3l0-0.1h2.4c0,0.9,0.3,1.5,0.8,1.9c0.5,0.4,1.1,0.6,1.8,0.6c0.7,0,1.2-0.2,1.6-0.5
		C200.3,396.5,200.5,396.1,200.5,395.5z"/>
</g>
<g>
	<path class="st15" d="M466,92.6h-5.6l-1.3,4.7h-2.7l5.6-18.7h2.5l5.6,18.7h-2.7L466,92.6z M461,90.5h4.4l-2.2-7.6h-0.1L461,90.5z"
		/>
	<path class="st15" d="M483.8,91.9L483.8,91.9l2.5-13.3h2.7l-3.8,18.7h-2.4L479.5,84h-0.1l-3.3,13.3h-2.4L470,78.6h2.7l2.4,13.3h0.1
		l3.1-13.3h2.3L483.8,91.9z"/>
	<path class="st15" d="M499.8,92.6c0-0.9-0.2-1.6-0.7-2.1c-0.5-0.6-1.3-1.1-2.6-1.5c-1.8-0.5-3.1-1.3-4-2.1c-0.9-0.9-1.4-2-1.4-3.5
		c0-1.5,0.5-2.7,1.6-3.6c1-1,2.4-1.4,4-1.4c1.7,0,3.1,0.5,4.2,1.6c1,1.1,1.5,2.4,1.5,4l0,0.1h-2.5c0-1.1-0.3-2-0.9-2.7
		c-0.6-0.7-1.3-1-2.3-1c-0.9,0-1.6,0.3-2.1,0.9c-0.5,0.6-0.8,1.3-0.8,2.2c0,0.8,0.3,1.5,0.8,2c0.5,0.5,1.4,1,2.7,1.5
		c1.7,0.6,3,1.3,3.9,2.2c0.9,0.9,1.3,2.1,1.3,3.5c0,1.5-0.5,2.7-1.6,3.6c-1,0.9-2.4,1.4-4.1,1.4c-1.6,0-3.1-0.5-4.3-1.5
		s-1.8-2.4-1.8-4.2l0-0.1h2.5c0,1.3,0.3,2.2,1,2.8c0.7,0.6,1.5,0.9,2.5,0.9c1,0,1.7-0.3,2.3-0.8C499.5,94.2,499.8,93.5,499.8,92.6z"
		/>
	<path class="st15" d="M519.3,92.6h-5.6l-1.3,4.7h-2.7l5.6-18.7h2.5l5.6,18.7h-2.7L519.3,92.6z M514.3,90.5h4.4l-2.2-7.6h-0.1
		L514.3,90.5z"/>
	<path class="st15" d="M528.1,89.9v7.4h-2.6V78.6h6.1c1.8,0,3.2,0.5,4.2,1.6c1,1,1.5,2.4,1.5,4.1c0,1.7-0.5,3.1-1.5,4.1
		c-1,1-2.4,1.6-4.2,1.6H528.1z M528.1,87.9h3.5c1,0,1.8-0.3,2.3-1c0.5-0.7,0.8-1.6,0.8-2.6c0-1.1-0.3-1.9-0.8-2.6
		c-0.5-0.7-1.3-1.1-2.3-1.1h-3.5V87.9z"/>
	<path class="st15" d="M542.9,97.3h-2.6V78.6h2.6V97.3z"/>
	<path class="st15" d="M469.9,126.4c-0.4,0.7-1.2,1.3-2.1,1.9c-1,0.5-2.2,0.8-3.8,0.8c-2,0-3.5-0.6-4.7-1.8
		c-1.2-1.2-1.8-2.9-1.8-5.1v-5.5c0-2.2,0.6-3.8,1.7-5s2.7-1.8,4.6-1.8c1.9,0,3.3,0.5,4.4,1.5c1,1,1.5,2.3,1.5,4l0,0.1h-2.5
		c0-1.1-0.3-2-0.9-2.6c-0.6-0.6-1.4-0.9-2.5-0.9c-1.2,0-2.1,0.4-2.8,1.2c-0.7,0.8-1,2-1,3.6v5.6c0,1.6,0.3,2.8,1,3.6
		c0.7,0.8,1.6,1.3,2.8,1.3c0.9,0,1.6-0.1,2.1-0.4c0.5-0.3,0.9-0.6,1.1-1v-4.4h-3.4v-1.9h6.1V126.4z"/>
	<path class="st15" d="M480.3,128.8c-0.1-0.4-0.2-0.8-0.3-1.1c-0.1-0.3-0.1-0.7-0.1-1c-0.4,0.7-0.9,1.3-1.5,1.7
		c-0.6,0.4-1.3,0.7-2.1,0.7c-1.2,0-2.2-0.4-2.9-1.1c-0.7-0.7-1-1.7-1-3c0-1.3,0.5-2.3,1.4-3.1c0.9-0.8,2.2-1.1,3.8-1.1h2.1v-1.4
		c0-0.8-0.2-1.5-0.6-2c-0.4-0.5-0.9-0.7-1.6-0.7c-0.6,0-1.1,0.2-1.5,0.6c-0.4,0.4-0.6,0.9-0.6,1.6l-2.5,0l0-0.1
		c-0.1-1.1,0.4-2,1.3-2.8c0.9-0.8,2.1-1.2,3.5-1.2c1.4,0,2.5,0.4,3.3,1.2c0.9,0.8,1.3,2,1.3,3.5v6.4c0,0.5,0,1,0.1,1.5
		c0.1,0.5,0.2,1,0.3,1.5H480.3z M476.9,127.1c0.7,0,1.3-0.2,1.9-0.7c0.5-0.4,0.9-1,1.1-1.6v-2.5h-2.2c-0.8,0-1.4,0.3-1.9,0.8
		c-0.5,0.5-0.7,1.1-0.7,1.8c0,0.6,0.2,1.2,0.5,1.5C475.9,126.9,476.4,127.1,476.9,127.1z"/>
	<path class="st15" d="M488.8,111.5v3.5h2.2v1.9h-2.2v8.3c0,0.7,0.1,1.2,0.3,1.5c0.2,0.3,0.5,0.5,0.9,0.5c0.1,0,0.3,0,0.4,0
		c0.1,0,0.3-0.1,0.4-0.1l0.3,1.8c-0.2,0.1-0.5,0.2-0.8,0.3c-0.3,0.1-0.6,0.1-0.9,0.1c-1,0-1.8-0.3-2.3-1c-0.6-0.6-0.8-1.7-0.8-3.1
		v-8.3h-1.8v-1.9h1.8v-3.5H488.8z"/>
	<path class="st15" d="M498.4,129.1c-1.7,0-3.1-0.6-4.1-1.9c-1-1.3-1.5-2.9-1.5-4.9v-0.6c0-2,0.5-3.7,1.5-5c1-1.3,2.2-2,3.8-2
		c1.6,0,2.8,0.6,3.6,1.7c0.8,1.1,1.2,2.6,1.2,4.5v1.5h-7.5c0,1.4,0.3,2.6,0.8,3.5c0.5,0.9,1.3,1.3,2.3,1.3c0.7,0,1.4-0.1,1.9-0.3
		c0.5-0.2,1-0.6,1.5-1l0.8,1.6c-0.5,0.5-1.1,0.9-1.8,1.2C500.2,128.9,499.3,129.1,498.4,129.1z M498.1,116.7c-0.8,0-1.4,0.3-1.8,1
		c-0.4,0.7-0.7,1.6-0.8,2.8h4.9v-0.3c0-1-0.2-1.9-0.6-2.5C499.5,117,498.9,116.7,498.1,116.7z"/>
	<path class="st15" d="M515.8,124.3L515.8,124.3l1.8-9.4h2.6l-3.2,13.9h-2.2l-2.6-9h-0.1l-2.5,9h-2.2l-3.2-13.9h2.6l1.8,9.3h0.1
		l2.5-9.3h1.9L515.8,124.3z"/>
	<path class="st15" d="M529.6,128.8c-0.1-0.4-0.2-0.8-0.3-1.1c-0.1-0.3-0.1-0.7-0.1-1c-0.4,0.7-0.9,1.3-1.5,1.7
		c-0.6,0.4-1.3,0.7-2.1,0.7c-1.2,0-2.2-0.4-2.9-1.1c-0.7-0.7-1-1.7-1-3c0-1.3,0.5-2.3,1.4-3.1c0.9-0.8,2.2-1.1,3.8-1.1h2.1v-1.4
		c0-0.8-0.2-1.5-0.6-2c-0.4-0.5-0.9-0.7-1.6-0.7c-0.6,0-1.1,0.2-1.5,0.6c-0.4,0.4-0.6,0.9-0.6,1.6l-2.5,0l0-0.1
		c-0.1-1.1,0.4-2,1.3-2.8c0.9-0.8,2.1-1.2,3.5-1.2c1.4,0,2.5,0.4,3.3,1.2c0.9,0.8,1.3,2,1.3,3.5v6.4c0,0.5,0,1,0.1,1.5
		c0.1,0.5,0.2,1,0.3,1.5H529.6z M526.2,127.1c0.7,0,1.3-0.2,1.9-0.7c0.5-0.4,0.9-1,1.1-1.6v-2.5H527c-0.8,0-1.4,0.3-1.9,0.8
		c-0.5,0.5-0.7,1.1-0.7,1.8c0,0.6,0.2,1.2,0.5,1.5C525.2,126.9,525.6,127.1,526.2,127.1z"/>
	<path class="st15" d="M538.5,124l0.2,0.9h0.1l2.7-10h2.9l-5,16c-0.3,0.9-0.8,1.8-1.3,2.4c-0.6,0.7-1.4,1-2.4,1
		c-0.2,0-0.4,0-0.7-0.1c-0.2,0-0.5-0.1-0.7-0.2l0.3-1.9c0.1,0,0.2,0,0.4,0.1c0.2,0,0.3,0,0.4,0c0.5,0,0.9-0.2,1.2-0.6
		c0.3-0.4,0.5-0.9,0.7-1.5l0.5-1.4l-4.4-13.8h2.8L538.5,124z"/>
</g>
<g>
	<path class="st15" d="M834.4,329.6h-5.6l-1.3,4.7h-2.7l5.6-18.7h2.5l5.6,18.7h-2.7L834.4,329.6z M829.5,327.5h4.4l-2.2-7.6h-0.1
		L829.5,327.5z"/>
	<path class="st15" d="M843.2,332.3h7.6v2h-10.2v-18.7h2.6V332.3z"/>
	<path class="st15" d="M853.3,334.3v-18.7h5.2c1.8,0,3.2,0.4,4.2,1.3c1,0.8,1.5,2.1,1.5,3.8c0,0.9-0.2,1.6-0.7,2.3
		c-0.4,0.7-1,1.2-1.8,1.5c1.1,0.2,1.9,0.7,2.5,1.5c0.6,0.9,0.9,1.9,0.9,3c0,1.7-0.5,3-1.5,3.9c-1,0.9-2.4,1.4-4.1,1.4H853.3z
		 M855.9,323.7h3c0.8,0,1.5-0.3,2-0.8c0.5-0.5,0.7-1.3,0.7-2.2c0-1-0.3-1.8-0.8-2.3c-0.5-0.5-1.3-0.8-2.3-0.8h-2.6V323.7z
		 M855.9,325.6v6.7h3.6c0.9,0,1.7-0.3,2.2-0.9c0.5-0.6,0.8-1.4,0.8-2.4c0-1-0.2-1.8-0.7-2.5c-0.5-0.6-1.2-0.9-2.1-1h-0.1H855.9z"/>
	<path class="st15" d="M870.6,334.3H868v-18.7h2.6V334.3z"/>
	<path class="st15" d="M883,329.6c0-0.9-0.2-1.6-0.7-2.1c-0.5-0.6-1.3-1.1-2.6-1.5c-1.8-0.5-3.1-1.3-4-2.1c-0.9-0.9-1.4-2-1.4-3.5
		c0-1.5,0.5-2.7,1.6-3.6c1-1,2.4-1.4,4-1.4c1.7,0,3.1,0.5,4.2,1.6c1,1.1,1.5,2.4,1.5,4l0,0.1h-2.5c0-1.1-0.3-2-0.9-2.7
		c-0.6-0.7-1.3-1-2.3-1c-0.9,0-1.6,0.3-2.1,0.9c-0.5,0.6-0.8,1.3-0.8,2.2c0,0.8,0.3,1.5,0.8,2c0.5,0.5,1.4,1,2.7,1.5
		c1.7,0.6,3,1.3,3.9,2.2c0.9,0.9,1.3,2.1,1.3,3.5c0,1.5-0.5,2.7-1.6,3.6c-1,0.9-2.4,1.4-4.1,1.4c-1.6,0-3.1-0.5-4.3-1.5
		s-1.8-2.4-1.8-4.2l0-0.1h2.5c0,1.3,0.3,2.2,1,2.8c0.7,0.6,1.5,0.9,2.5,0.9c1,0,1.7-0.3,2.3-0.8C882.7,331.2,883,330.5,883,329.6z"
		/>
	<path class="st15" d="M847.8,361.1h-5.6l-1.3,4.7h-2.7l5.6-18.7h2.5l5.6,18.7h-2.7L847.8,361.1z M842.8,359h4.4l-2.2-7.6H845
		L842.8,359z"/>
	<path class="st15" d="M856.6,358.5v7.4H854v-18.7h6.1c1.8,0,3.2,0.5,4.2,1.6c1,1,1.5,2.4,1.5,4.1c0,1.7-0.5,3.1-1.5,4.1
		c-1,1-2.4,1.6-4.2,1.6H856.6z M856.6,356.5h3.5c1,0,1.8-0.3,2.3-1c0.5-0.7,0.8-1.6,0.8-2.6c0-1.1-0.3-1.9-0.8-2.6
		c-0.5-0.7-1.3-1.1-2.3-1.1h-3.5V356.5z"/>
	<path class="st15" d="M871.3,365.8h-2.6v-18.7h2.6V365.8z"/>
</g>
<g>
	<polygon points="501,179.1 505.1,188.7 509.2,198.3 501,198.3 492.9,198.3 497,188.7 	"/>
</g>
<g>
	<polygon points="146.5,268.3 142.4,258.7 138.3,249.1 146.5,249.1 154.7,249.1 150.6,258.7 	"/>
</g>
<g>
	<polygon points="391,104.5 381.4,108.6 371.8,112.7 371.8,104.5 371.8,96.3 381.4,100.4 	"/>
</g>
<g>
	<polygon points="611,104.5 620.7,100.4 630.3,96.3 630.3,104.5 630.3,112.7 620.7,108.6 	"/>
</g>
<g>
	<polygon points="501,503.9 497,494.3 492.9,484.7 501,484.7 509.2,484.7 505.1,494.3 	"/>
</g>
<g>
	<polygon points="391,578 381.4,582.1 371.8,586.2 371.8,578 371.8,569.9 381.4,573.9 	"/>
</g>
<g>
	<polygon points="146.5,417.1 150.6,426.7 154.7,436.3 146.5,436.3 138.3,436.3 142.4,426.7 	"/>
</g>
<g>
	<polygon points="855.6,268.3 851.5,258.7 847.4,249.1 855.6,249.1 863.7,249.1 859.6,258.7 	"/>
</g>
</svg>
